<svg xmlns="http://www.w3.org/2000/svg" width="64" height="64"><g transform="matrix(.386585 0 0 .386585 0 4.112239)"><path d="M86.085 127c-.21-1.424.197-2.84-.232-4.177-.367-1.166-1.21-1.273-1.762-2.22-1.457-2.487-2.963-5.71-3.102-8.754-.127-2.735-1.133-5.206-1.27-7.917-.066-1.308.088-2.657.04-3.952-.025-.63-.06-1.176-.186-1.86l-.195-1.144.34-.848c-.15-.29 2.902-.194 3.812-.188l4.54.173c3.148.156 6.016.117 9.082-.356 6.832-1.055 9.973-3.845 11.58-5.005 6.273-4.523 9.146-11.918 9.146-11.918 1.035-2.3 1.03-6.43 3.25-8.276 2.615-2.18 7.006-2.022 10.008-3.36 1.756-.777 3.023-1.205 4.818-.833 1.332.278 3.73 1.82 4.28-.345-.445-.287-.62-.812-.857-1.103 2.475-.245.047-5.986-.932-7.133-1.512-1.77-4.035-2.58-6.72-3.293-3.188-.845-6.08-1.82-9.082-1.23-5.242 1.026-4.85-1.974-7.94-1.974-3.707 0-10.303.182-11.443 3.786-.53 1.683-1.078 1.753-1.998 3.044-.787 1.106.137 2.082-.258 3.344-.408 1.297-1.007 5.865-1.632 7.46-1.057 2.697-2.317 6.065-4.643 6.065-3.26.4-5.824.515-8.47-.445-1.592-.578-4.26-1.483-5.58-2.04-6.088-2.563-7.088-5.367-7.088-5.367-.653-1.08-2.374-2.82-3.018-5.093-.708-2.502-1.903-4.59-2.387-5.89-.5-1.35-1.7-3.5-2.64-5.846-1.205-2.99-2.9-5.223-4.14-6.33-1.896-1.7-3.646-4.306-7.495-3.546-.688.136-3.188.25-5.104 1.856-1.3 1.1-1.71 3.34-2.912 5.236-.695 1.096-1.917 4.24-3.038 6.863-.777 1.818-1.14 3.18-1.98 3.85-.657.524-1.47 1.2-2.456.832-.61-.23-1.264-.617-1.923-1.132-.9-.695-2.913-4.138-4.156-6.68-1.077-2.205-3.376-5.502-4.706-7.287-1.914-2.568-3.036-3.22-5.864-3.22-6.067 0-6.526 3.397-9.195 8.337-1.172 2.17-1.6 5.614-3.952 8.313-1.345 1.544-5.637 7.893-8.62 8.972v-.03l-.008.03.008 45.036c.193-.6.398-1.156.63-1.662 1.154-2.46 3.832-4.74 5.32-7.266.81-1.376 1.732-2.724 2.268-4.168.46-1.244.688-3.1 1.354-4.178.816-1.323 2.094-1.773 3.406-1.987 2.055-.34 3.8 2.954 6.43 4.166 1.12.515 6.28 2.342 7.83 2.717 2.55.6 5.38 1.12 7.97 1.642 1.387.28 2.713.443 4.14.588 1.28.128 6.08.287 6.377.634-2.44 1.244-3.87 4.736-4.785 7.207-.955 2.575-1.62 5.44-2.775 7.96-1.28 2.783-3.96 3.94-3.64 7.184.123 1.294.36 2.65.143 4.075-.23 1.5-.836 2.67-1.277 4.137-.566 1.915-1.24 8.1-2.113 9.918l5.346-.672c.583-1.386 1.12-7.237 1.31-7.794.998-2.934 2.322-5.348 4.36-7.617 1.986-2.21 1.883-5.06 3.043-7.637 1.256-2.8 2.945-5.04 4.54-7.67 2.88-4.76 4.78-10.767 10.906-11.99.654-.135 4.404 2.57 6.068 4.177 1.906 1.832 3.988 3.954 5.24 6.48 2.424 4.896 4.48 11.988 5.258 15.9.447 2.246.803 2.38 2.322 4.16.7.815 2.094 3.362 2.553 4.34.482 1.044 1.215 3.42 1.8 4.633.344.722 1.236 2.94 1.885 4.856l4.987-.156c.018.042.11-.012.13.027-.014-.04-.033-.084-.05-.125-2.485-4.987-4.075-10.757-4.896-16.28z" fill="#fff"/><path d="M82.92 97.9l.023-.06c-.034-.154-.046-.19-.023.06z" fill="#484444"/><linearGradient y2="97.9" x2="82.925" y1="97.718" x1="82.925" gradientUnits="userSpaceOnUse" id="A"><stop offset="0" stop-color="#f29100"/><stop offset="1" stop-color="#ec670f"/></linearGradient><path d="M82.92 97.9l.023-.06c-.034-.154-.046-.19-.023.06z" fill="url(#A)"/><linearGradient y2="144.277" x2="61.276" y1="98.981" x1="61.276" gradientUnits="userSpaceOnUse" id="B"><stop offset="0" stop-color="#f29100"/><stop offset="1" stop-color="#ec670f"/></linearGradient><path d="M84.03 138.674c-.584-1.213-1.316-3.59-1.8-4.633-.46-.978-1.854-3.524-2.553-4.34-1.52-1.78-1.875-1.913-2.322-4.16-.777-3.91-2.834-11.004-5.258-15.9-1.252-2.526-3.334-4.648-5.24-6.48-1.664-1.607-5.414-4.312-6.068-4.177-6.125 1.223-8.025 7.23-10.906 11.99-1.594 2.632-3.283 4.87-4.54 7.67-1.16 2.575-1.057 5.426-3.043 7.637-2.037 2.27-3.36 4.684-4.36 7.617-.19.557-.726 6.408-1.31 7.794l9.103-.638c8.482.578 6.033 3.83 19.273 3.12l20.906-.647c-.65-1.916-1.542-4.134-1.886-4.856z" fill="url(#B)"/><linearGradient y2="144.245" x2="82.781" y1="0" x1="82.781" gradientUnits="userSpaceOnUse" id="C"><stop offset="0" stop-color="#f29100"/><stop offset="1" stop-color="#ec670f"/></linearGradient><path d="M144.695 0H20.865A20.86 20.86 0 0 0 .01 20.857v45.507c2.984-1.08 7.276-7.428 8.62-8.972 2.353-2.7 2.78-6.144 3.952-8.313 2.67-4.94 3.128-8.337 9.195-8.337 2.828 0 3.95.652 5.864 3.22 1.33 1.785 3.63 5.083 4.706 7.287 1.242 2.544 3.266 5.986 4.156 6.68.66.516 1.312.903 1.923 1.132.984.37 1.798-.308 2.456-.832.84-.67 1.202-2.032 1.98-3.85 1.122-2.623 2.343-5.766 3.038-6.863 1.203-1.896 1.613-4.146 2.912-5.236 1.916-1.607 4.416-1.72 5.104-1.856 3.85-.76 5.6 1.856 7.495 3.546 1.24 1.108 2.937 3.34 4.14 6.33.94 2.336 2.14 4.497 2.64 5.846.484 1.302 1.68 3.39 2.387 5.89.643 2.272 2.364 4.013 3.018 5.093 0 0 1 2.804 7.088 5.367 1.32.556 3.988 1.46 5.58 2.04 2.645.96 5.207.836 8.47.445 2.326 0 3.586-3.368 4.643-6.065.625-1.594 1.224-6.162 1.632-7.46.395-1.262-.53-2.238.258-3.344.92-1.29 1.467-1.36 1.998-3.044 1.14-3.604 7.736-3.786 11.443-3.786 3.1 0 2.697 3 7.94 1.974 3.002-.59 5.895.387 9.082 1.23 2.684.712 5.207 1.523 6.72 3.293.98 1.146 3.406 6.888.932 7.133.238.29.412.816.857 1.103-.55 2.166-2.95.623-4.28.345-1.795-.372-3.062.056-4.818.833-3.002 1.337-7.393 1.18-10.008 3.36-2.22 1.846-2.215 5.967-3.25 8.276 0 0-2.873 7.394-9.146 11.918-1.607 1.16-4.748 3.95-11.58 5.005-3.066.474-5.934.513-9.082.356l-4.54-.173c-.9-.007-3.963-.104-3.812.188l-.34.848c.053.28.164.976.195 1.144.125.685.16 1.23.186 1.86.047 1.295-.107 2.645-.04 3.952.137 2.71 1.143 5.182 1.27 7.917.14 3.045 1.645 6.267 3.102 8.754.553.947 1.395 1.055 1.762 2.22.43 1.336.023 2.753.232 4.177.82 5.52 2.4 11.292 4.896 16.275a1.16 1.16 0 0 0 .058.123c3.07-.514 6.147-1.618 10.136-2.208 7.314-1.085 17.486-.526 24.02-1.138 16.533-1.554 25.506 6.78 40.355 3.365V20.858C165.55 9.34 156.216 0 144.695 0zM82.92 97.9c-.023-.25-.012-.215.023-.06z" fill="url(#C)"/><linearGradient y2="143.249" x2="22.871" y1="92.114" x1="22.871" gradientUnits="userSpaceOnUse" id="D"><stop offset="0" stop-color="#f29100"/><stop offset="1" stop-color="#ec670f"/></linearGradient><path d="M38.175 117.053c1.154-2.518 1.82-5.385 2.775-7.96.916-2.47 2.346-5.963 4.785-7.207-.297-.347-5.096-.506-6.377-.634l-4.14-.588-7.97-1.642c-1.55-.375-6.71-2.202-7.83-2.717-2.63-1.212-4.375-4.505-6.43-4.166-1.312.214-2.6.664-3.406 1.987-.666 1.08-.893 2.933-1.354 4.178-.535 1.444-1.46 2.792-2.268 4.168-1.488 2.524-4.166 4.807-5.32 7.266-.232.506-.438 1.072-.63 1.662v28.113l4.33.934c11.63 3.104 14.47 3.366 25.877 2.062l1.07-.142c.873-1.82 1.547-8.004 2.113-9.92.44-1.468 1.047-2.638 1.277-4.137.217-1.424-.02-2.78-.143-4.075-.317-3.242 2.365-4.4 3.644-7.183z" fill="url(#D)"/></g></svg>