<?xml version="1.0" encoding="UTF-8" standalone="no"?>
<!-- Generator: Adobe Illustrator 21.1.0, SVG Export Plug-In . SVG Version: 6.00 Build 0)  -->

<svg
   xmlns:dc="http://purl.org/dc/elements/1.1/"
   xmlns:cc="http://creativecommons.org/ns#"
   xmlns:rdf="http://www.w3.org/1999/02/22-rdf-syntax-ns#"
   xmlns:svg="http://www.w3.org/2000/svg"
   xmlns="http://www.w3.org/2000/svg"
   xmlns:sodipodi="http://sodipodi.sourceforge.net/DTD/sodipodi-0.dtd"
   xmlns:inkscape="http://www.inkscape.org/namespaces/inkscape"
   version="1.1"
   id="Calque_1"
   x="0px"
   y="0px"
   viewBox="0 0 22.058667 22.058666"
   width="64"
   height="64"
   xml:space="preserve"
   sodipodi:docname="xeus-cling.svg"
   inkscape:version="0.92.3 (unknown)"><metadata
   id="metadata23"><rdf:RDF><cc:Work
       rdf:about=""><dc:format>image/svg+xml</dc:format><dc:type
         rdf:resource="http://purl.org/dc/dcmitype/StillImage" /><dc:title></dc:title></cc:Work></rdf:RDF></metadata><defs
   id="defs21" /><sodipodi:namedview
   pagecolor="#ffffff"
   bordercolor="#666666"
   borderopacity="1"
   objecttolerance="10"
   gridtolerance="10"
   guidetolerance="10"
   inkscape:pageopacity="0"
   inkscape:pageshadow="2"
   inkscape:window-width="1855"
   inkscape:window-height="1056"
   id="namedview19"
   showgrid="false"
   inkscape:zoom="1.8616796"
   inkscape:cx="-24.288617"
   inkscape:cy="61.317342"
   inkscape:window-x="65"
   inkscape:window-y="24"
   inkscape:window-maximized="1"
   inkscape:current-layer="g16" />
<style
   type="text/css"
   id="style2">
	.st0{fill:#666666;}
	.st1{fill:#40B3C3;}
	.st2{opacity:0.28;fill:#40B3C3;}
</style>
<g
   id="g16"
   transform="translate(0,-57.341334)">
	<path
   class="st0"
   d="m 5.2883489,72.062691 c -0.1661045,0.228394 -0.2491567,0.53984 -0.2491567,0.934338 0,0.830522 0.311446,1.245784 0.9343377,1.245784 0.2699192,0 0.5813652,-0.06229 0.9551002,-0.186868 v 0.664417 c -0.3114458,0.124579 -0.6436549,0.186867 -1.0173894,0.186867 -0.5398395,0 -0.9551008,-0.166103 -1.245783,-0.498313 -0.2906829,-0.332208 -0.4360243,-0.788995 -0.4360243,-1.411887 0,-0.394498 0.062289,-0.726707 0.2076305,-1.01739 0.1453415,-0.290682 0.3322091,-0.519076 0.6021283,-0.664417 0.2699198,-0.145342 0.5813657,-0.228394 0.9343377,-0.228394 0.3529715,0 0.7267066,0.08305 1.0796785,0.269919 L 6.8040518,72.000402 C 6.6587103,71.938113 6.534132,71.875824 6.3887906,71.834297 6.2434491,71.79277 6.1188708,71.751246 5.9735299,71.751246 5.682847,71.730486 5.4544534,71.834296 5.2883489,72.062691 Z m 2.6369075,2.78225 H 8.6934891 V 70.89996 H 7.9252564 Z m 1.8271488,0 H 10.520638 V 72.000402 H 9.7524052 Z M 10.146903,70.89996 c -0.2906831,0 -0.4152609,0.124579 -0.4152609,0.373736 0,0.249156 0.1453409,0.373735 0.4152609,0.373735 0.145341,0 0.249156,-0.04153 0.311446,-0.103815 0.06229,-0.06229 0.103815,-0.166105 0.103815,-0.290684 0,-0.228393 -0.124579,-0.352972 -0.415261,-0.352972 z m 3.072931,1.038153 c -0.186868,0 -0.373735,0.04153 -0.519076,0.103815 -0.145342,0.06229 -0.26992,0.166105 -0.352972,0.311446 h -0.04153 l -0.103813,-0.352972 h -0.581365 v 2.844539 h 0.768233 v -1.328836 c 0,-0.332209 0.04153,-0.581365 0.145341,-0.726707 0.103815,-0.145341 0.249157,-0.20763 0.47755,-0.20763 0.166105,0 0.26992,0.04153 0.352972,0.145341 0.08305,0.103815 0.103816,0.249157 0.103816,0.456787 v 1.661045 h 0.768232 v -1.847912 c 0,-0.332209 -0.08305,-0.602129 -0.249156,-0.768233 -0.186867,-0.186868 -0.436025,-0.290683 -0.768234,-0.290683 z m 4.526345,0.456787 -0.436024,0.103816 c 0.08305,0.124578 0.124578,0.269919 0.124578,0.436024 0,0.311445 -0.103815,0.539839 -0.311446,0.705944 -0.207631,0.166104 -0.498313,0.249156 -0.892811,0.249156 H 16.085135 L 15.98132,73.86908 c -0.08305,0.06229 -0.124579,0.124578 -0.124579,0.20763 0,0.103815 0.145341,0.166105 0.436024,0.166105 h 0.477551 c 0.311445,0 0.539839,0.06228 0.705944,0.207629 0.166104,0.124579 0.249156,0.332209 0.249156,0.581367 0,0.332209 -0.145341,0.581365 -0.415261,0.768232 -0.269919,0.186868 -0.664418,0.26992 -1.183494,0.26992 -0.394498,0 -0.705944,-0.06229 -0.913574,-0.20763 -0.207631,-0.145342 -0.311446,-0.332209 -0.311446,-0.581366 0,-0.166104 0.06229,-0.311446 0.166104,-0.436024 0.103816,-0.124578 0.26992,-0.186867 0.477551,-0.249157 -0.08305,-0.04153 -0.145342,-0.08305 -0.207631,-0.166104 -0.06229,-0.08305 -0.08305,-0.166105 -0.08305,-0.249157 0,-0.103815 0.04153,-0.20763 0.103815,-0.269919 0.06229,-0.06229 0.145341,-0.145342 0.26992,-0.20763 -0.145342,-0.06229 -0.26992,-0.166105 -0.352972,-0.311446 -0.08305,-0.145343 -0.124578,-0.311446 -0.124578,-0.498313 0,-0.311446 0.103815,-0.539841 0.311445,-0.726708 0.207631,-0.166104 0.498313,-0.249157 0.872049,-0.249157 0.08305,0 0.166103,0 0.290682,0.02076 0.124579,0.02076 0.186867,0.02076 0.20763,0.04153 h 0.996627 v 0.415261 z M 15.7114,74.969519 c -0.103815,0.06229 -0.145342,0.145341 -0.145342,0.26992 0,0.103815 0.04153,0.186867 0.145342,0.249155 0.103815,0.06229 0.249156,0.08305 0.436024,0.08305 0.26992,0 0.498313,-0.04153 0.643654,-0.124577 0.166105,-0.08305 0.228394,-0.186869 0.228394,-0.311447 0,-0.103815 -0.04153,-0.186867 -0.145341,-0.228394 -0.08305,-0.04153 -0.228394,-0.06229 -0.436024,-0.06229 h -0.394498 c -0.124578,0.02076 -0.249158,0.06229 -0.332209,0.124578 z m 0.975863,-2.034779 c 0,-0.332209 -0.145341,-0.519076 -0.41526,-0.519076 -0.290683,0 -0.436025,0.166104 -0.436025,0.519076 0,0.145341 0.04153,0.26992 0.103816,0.373735 0.06229,0.08305 0.186867,0.124577 0.311446,0.124577 0.14534,0 0.249155,-0.04153 0.311444,-0.124577 0.103816,-0.103815 0.124579,-0.228394 0.124579,-0.373735 z"
   id="path4"
   inkscape:connector-curvature="0"
   style="fill:#666666;stroke-width:0.20763049" />
	<g
   id="g14"
   transform="matrix(0.14269714,0,0,0.14269714,0.74389557,60.730603)">
		<path
   id="path4143_4_"
   class="st1"
   d="m 5.5,0 c 0.1,0 0.3,0.1 0.4,0.1 2.7,0.9 5,2.2 5,2.3 2.1,1.5 4,3.4 5.3,5.6 0.5,0.7 5.7,8.6 9.5,14.2 -0.9,1.3 -1.7,2.5 -2.3,3.5 0,-0.1 -0.1,-0.1 -0.1,-0.2 C 19.4,19.7 12.6,9.5 12.1,8.7 11.2,7.3 9.9,6 8.3,5 8.3,5 6.6,3.9 4.4,3.2 3.5,2.9 2,2.6 0,2.4 V 49.2 C 2,49 3.5,48.7 4.4,48.4 6.6,47.7 8.3,46.6 8.3,46.6 10,45.5 11.2,44.2 12.2,42.8 12.7,42.1 19.5,31.8 23.4,26 26.6,21.1 34.7,8.9 35.3,8.1 36.7,5.9 38.5,4 40.6,2.5 c 0,-0.1 2.3,-1.4 5,-2.3 L 46.1,0 Z m 46,2.4 C 49.5,2.6 48,2.9 47.1,3.2 44.9,3.9 43.2,5 43.2,5 41.6,6 40.3,7.3 39.3,8.8 38.8,9.5 32,19.8 28.1,25.6 25,30.4 16.9,42.6 16.3,43.4 14.9,45.6 13.1,47.5 11,49 11,49.1 8.7,50.4 6,51.3 L 5.4,51.4 H 46 l -0.4,-0.1 c -2.7,-0.9 -5,-2.2 -5,-2.3 -2.1,-1.5 -4,-3.4 -5.3,-5.6 -0.5,-0.7 -5.7,-8.6 -9.5,-14.2 0.9,-1.3 1.7,-2.5 2.3,-3.5 0,0.1 0.1,0.1 0.1,0.2 3.9,5.8 10.7,16 11.2,16.8 1,1.4 2.2,2.7 3.9,3.8 0,0 1.7,1.1 3.9,1.8 0.9,0.3 2.4,0.5 4.4,0.8 v 2.3 h 0.1 v -49 z"
   inkscape:connector-curvature="0"
   style="fill:#40b3c3" />
		<path
   id="path7-3_3_"
   class="st2"
   d="m 28,25.7 c -0.6,0.9 -1.4,2.1 -2.3,3.5 3.8,5.7 9,13.6 9.5,14.2 1.4,2.2 3.2,4.1 5.3,5.6 0,0.1 2.3,1.4 5,2.3 0.2,0 0.4,0.1 0.6,0.1 h 5.3 V 49 C 49.4,48.8 47.9,48.5 47,48.2 44.8,47.5 43.1,46.4 43.1,46.4 41.5,45.4 40.2,44.1 39.2,42.6 38.8,42 32,31.8 28.1,26 v 0 c 0,-0.1 0,-0.2 -0.1,-0.3 M 5.3,0 H 0 V 2.4 C 2,2.6 3.5,2.9 4.4,3.2 6.6,3.9 8.3,5 8.3,5 c 1.6,1 2.9,2.3 3.9,3.8 0.5,0.7 7.3,11 11.2,16.8 v 0 c 0,0.1 0.1,0.1 0.1,0.2 0.6,-0.9 1.4,-2.1 2.3,-3.5 C 22,16.6 16.8,8.7 16.3,8 14.9,5.8 13.1,3.9 11,2.4 11,2.3 8.7,1 6,0.1 5.8,0.1 5.6,0 5.3,0"
   inkscape:connector-curvature="0"
   style="opacity:0.28000004;fill:#40b3c3" />
		<path
   class="st1"
   d="m 130.8354,10.3 c -5.3,0 -10.1,2.4 -10.1,8.5 0,6.1 4.3,8 9.6,9.4 4.9,1.4 9,2.4 9,6.9 0,5.4 -3.9,7.1 -8.2,7.1 -3.9,0 -7.6,-1 -10.4,-2.8 l -1.1,2.1 c 3.3,2.2 7.3,3 11.6,3 5.7,0 10.6,-2.5 10.6,-9.4 0,-6.2 -4.8,-7.6 -10.4,-9.2 -5.1,-1.4 -8.1,-2.7 -8.1,-7 0,-4.9 3.4,-6.3 7.7,-6.3 2.8,0 5.6,0.4 7.9,1.7 l 1,-2.2 c -3,-1.4 -6.1,-1.8 -9.1,-1.8 z"
   id="path8"
   inkscape:connector-curvature="0"
   style="fill:#40b3c3" />
		<path
   class="st1"
   d="m 110.65745,10.2 v 18.2 c 0,8.1 -1.2,13.8 -8.79999,13.8 h -0.7 c -7.700001,0 -8.800001,-5.7 -8.800001,-13.8 V 10.3 c -0.9,0.5 -1.9,1 -2.6,1.7 v 17.2 c 0,7.2 1.3,15.3 11.000001,15.3 h 1.5 c 9.59999,0 10.99999,-8.1 11.09999,-15.4 V 11.9 c -0.9,-0.7 -1.8,-1.2 -2.7,-1.7 z"
   id="path10"
   inkscape:connector-curvature="0"
   style="fill:#40b3c3" />
		<path
   class="st1"
   d="m 71.077951,10.3 c -6,0 -13.1,2.2 -13.1,17.2 0,13.9 6.1,17.1 13.6,17.1 4,0 7.6,-0.7 10.6,-2.6 l -1,-2.2 c -3.1,1.8 -6,2.4 -9.6,2.4 -5.9,0 -10.6,-2.1 -11,-12.7 v -1.3 h 22.9 v 0 -0.9 c 0.1,-12.8 -4.6,-17 -12.4,-17 z m -10.6,15.6 c 0.2,-11.2 5.2,-13.3 10.5,-13.3 5.9,0 9.9,3.1 9.9,13.3 z"
   id="path12"
   inkscape:connector-curvature="0"
   style="fill:#40b3c3" />
	</g>
</g>
</svg>